<?xml version="1.0" encoding="UTF-8"?>
<svg xmlns="http://www.w3.org/2000/svg" xmlns:xlink="http://www.w3.org/1999/xlink" width="375pt" height="374.999991pt" viewBox="0 0 375 374.999991" version="1.2">
<defs>
<clipPath id="clip1">
  <path d="M 148 29 L 309 29 L 309 201 L 148 201 Z M 148 29 "/>
</clipPath>
<clipPath id="clip2">
  <path d="M 189.046875 18.773438 L 331.261719 79.144531 L 218.730469 344.25 L 76.515625 283.878906 Z M 189.046875 18.773438 "/>
</clipPath>
<clipPath id="clip3">
  <path d="M 189.046875 18.773438 L 331.261719 79.144531 L 218.730469 344.25 L 76.515625 283.878906 Z M 189.046875 18.773438 "/>
</clipPath>
<clipPath id="clip4">
  <path d="M 163 93 L 289 93 L 289 187 L 163 187 Z M 163 93 "/>
</clipPath>
<clipPath id="clip5">
  <path d="M 189.046875 18.773438 L 331.261719 79.144531 L 218.730469 344.25 L 76.515625 283.878906 Z M 189.046875 18.773438 "/>
</clipPath>
<clipPath id="clip6">
  <path d="M 189.046875 18.773438 L 331.261719 79.144531 L 218.730469 344.25 L 76.515625 283.878906 Z M 189.046875 18.773438 "/>
</clipPath>
<clipPath id="clip7">
  <path d="M 146 189 L 207 189 L 207 304 L 146 304 Z M 146 189 "/>
</clipPath>
<clipPath id="clip8">
  <path d="M 189.046875 18.773438 L 331.261719 79.144531 L 218.730469 344.25 L 76.515625 283.878906 Z M 189.046875 18.773438 "/>
</clipPath>
<clipPath id="clip9">
  <path d="M 189.046875 18.773438 L 331.261719 79.144531 L 218.730469 344.25 L 76.515625 283.878906 Z M 189.046875 18.773438 "/>
</clipPath>
<clipPath id="clip10">
  <path d="M 108 286 L 189 286 L 189 331 L 108 331 Z M 108 286 "/>
</clipPath>
<clipPath id="clip11">
  <path d="M 189.046875 18.773438 L 331.261719 79.144531 L 218.730469 344.25 L 76.515625 283.878906 Z M 189.046875 18.773438 "/>
</clipPath>
<clipPath id="clip12">
  <path d="M 189.046875 18.773438 L 331.261719 79.144531 L 218.730469 344.25 L 76.515625 283.878906 Z M 189.046875 18.773438 "/>
</clipPath>
</defs>
<g id="surface1">
<g clip-path="url(#clip1)" clip-rule="nonzero">
<g clip-path="url(#clip2)" clip-rule="nonzero">
<g clip-path="url(#clip3)" clip-rule="nonzero">
<path style=" stroke:none;fill-rule:nonzero;fill:rgb(54.899597%,48.239136%,15.289307%);fill-opacity:1;" d="M 303.601562 70.492188 L 304.714844 67.875 L 214.195312 29.453125 L 212.894531 30.394531 C 212.8125 30.457031 202.496094 37.925781 190.144531 50.144531 C 177.800781 62.371094 163.390625 79.316406 155.214844 98.558594 C 151.984375 106.160156 149.738281 114.128906 149.027344 122.308594 C 148.496094 128.445312 148.835938 134.695312 150.28125 140.949219 C 152.441406 150.335938 157.097656 159.714844 164.859375 168.730469 C 172.625 177.746094 183.46875 186.417969 198.066406 194.566406 L 198.332031 194.714844 L 198.625 194.804688 C 212.84375 199.109375 225.304688 200.992188 236.246094 200.878906 C 244.445312 200.792969 251.792969 199.578125 258.339844 197.425781 C 268.167969 194.199219 276.175781 188.839844 282.582031 182.160156 C 288.996094 175.476562 293.820312 167.488281 297.453125 158.9375 C 305.609375 139.683594 307.792969 117.550781 308.011719 100.179688 C 308.222656 82.804688 306.429688 70.195312 306.417969 70.09375 L 306.191406 68.503906 L 304.714844 67.875 L 303.601562 70.492188 L 300.785156 70.894531 L 300.789062 70.921875 C 300.878906 71.582031 302.578125 84.078125 302.3125 100.902344 C 302.058594 117.722656 299.800781 138.867188 292.214844 156.714844 C 289.175781 163.875 285.289062 170.503906 280.371094 176.148438 C 276.683594 180.386719 272.410156 184.078125 267.453125 187.058594 C 260.011719 191.523438 251.007812 194.421875 239.945312 195.0625 C 228.886719 195.699219 215.773438 194.054688 200.273438 189.359375 L 199.449219 192.082031 L 200.835938 189.597656 C 188.265625 182.582031 178.730469 175.253906 171.699219 167.8125 C 166.417969 162.238281 162.546875 156.597656 159.816406 150.957031 C 155.730469 142.496094 154.207031 134.019531 154.519531 125.601562 C 154.839844 117.191406 157.03125 108.839844 160.449219 100.78125 C 168.136719 82.640625 182.09375 66.101562 194.148438 54.1875 C 200.171875 48.226562 205.710938 43.414062 209.738281 40.101562 C 211.75 38.445312 213.382812 37.164062 214.507812 36.296875 C 215.070312 35.867188 215.507812 35.535156 215.796875 35.320312 C 215.945312 35.207031 216.054688 35.128906 216.128906 35.074219 L 216.207031 35.019531 L 216.230469 35 L 214.5625 32.699219 L 213.449219 35.316406 L 302.492188 73.109375 L 303.601562 70.492188 L 300.785156 70.894531 L 303.601562 70.492188 "/>
</g>
</g>
</g>
<g clip-path="url(#clip4)" clip-rule="nonzero">
<g clip-path="url(#clip5)" clip-rule="nonzero">
<g clip-path="url(#clip6)" clip-rule="nonzero">
<path style=" stroke:none;fill-rule:nonzero;fill:rgb(54.899597%,48.239136%,15.289307%);fill-opacity:1;" d="M 173.25 93.410156 C 157.839844 120.402344 154.777344 154.191406 203.902344 181.59375 C 257.734375 197.894531 279.917969 172.222656 288.625 142.382812 L 173.25 93.410156 "/>
</g>
</g>
</g>
<g clip-path="url(#clip7)" clip-rule="nonzero">
<g clip-path="url(#clip8)" clip-rule="nonzero">
<g clip-path="url(#clip9)" clip-rule="nonzero">
<path style=" stroke:none;fill-rule:nonzero;fill:rgb(54.899597%,48.239136%,15.289307%);fill-opacity:1;" d="M 160.511719 303.230469 L 146.542969 297.300781 L 192.464844 189.117188 L 206.433594 195.046875 L 160.511719 303.230469 "/>
</g>
</g>
</g>
<g clip-path="url(#clip10)" clip-rule="nonzero">
<g clip-path="url(#clip11)" clip-rule="nonzero">
<g clip-path="url(#clip12)" clip-rule="nonzero">
<path style=" stroke:none;fill-rule:nonzero;fill:rgb(54.899597%,48.239136%,15.289307%);fill-opacity:1;" d="M 187.089844 325.964844 C 158.285156 306.808594 162.726562 294.621094 162.726562 294.621094 L 159.386719 286.460938 L 151.195312 289.726562 C 151.195312 289.726562 145.515625 301.386719 111.722656 293.972656 C 111.722656 293.972656 105.207031 293.957031 109.980469 298.070312 L 185.351562 330.0625 C 191.628906 330.640625 187.089844 325.964844 187.089844 325.964844 "/>
</g>
</g>
</g>
</g>
</svg>
